<svg width="46" height="46" viewBox="0 0 46 46" fill="none" xmlns="http://www.w3.org/2000/svg">
<circle cx="23" cy="23" r="22" stroke="#D1D5DB" stroke-width="2"/>
<path d="M28.6664 18.6063C29.37 18.6063 29.9403 18.036 29.9403 17.3324C29.9403 16.6289 29.37 16.0586 28.6664 16.0586C27.9629 16.0586 27.3926 16.6289 27.3926 17.3324C27.3926 18.036 27.9629 18.6063 28.6664 18.6063Z" fill="#D1D5DB"/>
<path d="M22.9998 17.5488C21.9217 17.5488 20.8678 17.8685 19.9714 18.4675C19.075 19.0665 18.3763 19.9178 17.9638 20.9138C17.5512 21.9099 17.4432 23.0059 17.6536 24.0633C17.8639 25.1207 18.3831 26.0919 19.1454 26.8543C19.9077 27.6166 20.879 28.1358 21.9364 28.3461C22.9938 28.5564 24.0898 28.4485 25.0858 28.0359C26.0819 27.6233 26.9332 26.9247 27.5322 26.0282C28.1311 25.1318 28.4508 24.0779 28.4508 22.9998C28.4508 21.5541 27.8765 20.1676 26.8543 19.1454C25.832 18.1231 24.4455 17.5488 22.9998 17.5488ZM22.9998 26.5383C22.3 26.5383 21.6159 26.3308 21.034 25.942C20.4521 25.5531 19.9985 25.0005 19.7307 24.3539C19.4629 23.7074 19.3928 22.9959 19.5294 22.3095C19.6659 21.6231 20.0029 20.9926 20.4978 20.4978C20.9926 20.0029 21.6231 19.6659 22.3095 19.5294C22.9959 19.3928 23.7074 19.4629 24.3539 19.7307C25.0005 19.9985 25.5531 20.4521 25.942 21.034C26.3308 21.6159 26.5383 22.3 26.5383 22.9998C26.5383 23.9383 26.1655 24.8383 25.5019 25.5019C24.8383 26.1655 23.9383 26.5383 22.9998 26.5383Z" fill="#D1D5DB"/>
<path d="M22.9992 14.2973C25.8335 14.2973 26.1696 14.3079 27.2887 14.3592C27.9617 14.3672 28.6284 14.4908 29.2596 14.7246C29.7175 14.9012 30.1334 15.1718 30.4805 15.5189C30.8275 15.8659 31.0981 16.2818 31.2747 16.7397C31.5085 17.3709 31.6321 18.0376 31.6401 18.7106C31.6914 19.8297 31.702 20.1658 31.702 23.001C31.702 25.8362 31.6914 26.1706 31.6401 27.2897C31.6321 27.9627 31.5085 28.6294 31.2747 29.2606C31.0981 29.7185 30.8275 30.1344 30.4805 30.4814C30.1334 30.8285 29.7175 31.0991 29.2596 31.2757C28.6284 31.5095 27.9617 31.6331 27.2887 31.6411C26.1696 31.6924 25.8335 31.703 22.9992 31.703C20.1649 31.703 19.8287 31.6924 18.7097 31.6411C18.0366 31.6331 17.3699 31.5095 16.7388 31.2757C16.2808 31.0991 15.8649 30.8285 15.5179 30.4814C15.1708 30.1344 14.9002 29.7185 14.7236 29.2606C14.4898 28.6294 14.3662 27.9627 14.3583 27.2897C14.3069 26.1706 14.2963 25.8345 14.2963 23.0001C14.2963 20.1658 14.3069 19.8297 14.3583 18.7106C14.3662 18.0376 14.4898 17.3709 14.7236 16.7397C14.9002 16.2818 15.1708 15.8659 15.5179 15.5189C15.8649 15.1718 16.2808 14.9012 16.7388 14.7246C17.3699 14.4908 18.0366 14.3672 18.7097 14.3592C19.8287 14.3079 20.1649 14.2973 22.9992 14.2973ZM22.9992 12.3848C20.1162 12.3848 19.7544 12.3972 18.6221 12.4485C17.7417 12.4662 16.8707 12.6331 16.0461 12.9421C15.3408 13.2148 14.7003 13.6319 14.1656 14.1666C13.6309 14.7013 13.2138 15.3418 12.9411 16.0471C12.6321 16.872 12.4652 17.7433 12.4475 18.624C12.3962 19.7563 12.3838 20.1163 12.3838 23.0001C12.3838 25.884 12.3962 26.2449 12.4475 27.3772C12.4653 28.2576 12.6322 29.1286 12.9411 29.9532C13.2138 30.6585 13.6309 31.299 14.1656 31.8337C14.7003 32.3684 15.3408 32.7855 16.0461 33.0582C16.871 33.3673 17.7423 33.5342 18.623 33.5518C19.7553 33.6031 20.1162 33.6155 22.9992 33.6155C25.8821 33.6155 26.2439 33.6031 27.3763 33.5518C28.2569 33.5342 29.1283 33.3673 29.9531 33.0582C30.6584 32.7855 31.2989 32.3684 31.8336 31.8337C32.3683 31.299 32.7854 30.6585 33.0581 29.9532C33.3669 29.1283 33.5335 28.257 33.5509 27.3763C33.6022 26.244 33.6146 25.884 33.6146 23.0001C33.6146 20.1163 33.6022 19.7554 33.5509 18.6231C33.5331 17.7427 33.3662 16.8717 33.0573 16.0471C32.7845 15.3418 32.3674 14.7013 31.8328 14.1666C31.2981 13.6319 30.6575 13.2148 29.9523 12.9421C29.1273 12.6333 28.256 12.4667 27.3754 12.4493C26.2431 12.3963 25.883 12.3848 22.9992 12.3848Z" fill="#D1D5DB"/>
</svg>