<svg width="203" height="33" viewBox="0 0 203 33" fill="none" xmlns="http://www.w3.org/2000/svg">
<rect x="19.4375" y="3.44238" width="22.6204" height="4.86884" transform="rotate(135 19.4375 3.44238)" fill="#3D6E65"/>
<path d="M16.0703 19.5117L12.563 16.0044L16.0703 16.0044L19.5131 16.0689L16.0703 19.5117Z" fill="#3D6E65"/>
<rect x="15.9951" y="32.0107" width="22.6204" height="4.86884" transform="rotate(-135 15.9951 32.0107)" fill="#3D6E65"/>
<rect x="32" y="16.0049" width="22.6204" height="4.86884" transform="rotate(135 32 16.0049)" fill="#3D6E65"/>
<path d="M46.7 16C46.7 14.6267 47.0067 13.4 47.62 12.32C48.2467 11.2267 49.0933 10.38 50.16 9.78C51.24 9.16667 52.4467 8.86 53.78 8.86C55.34 8.86 56.7067 9.26 57.88 10.06C59.0533 10.86 59.8733 11.9667 60.34 13.38H57.12C56.8 12.7133 56.3467 12.2133 55.76 11.88C55.1867 11.5467 54.52 11.38 53.76 11.38C52.9467 11.38 52.22 11.5733 51.58 11.96C50.9533 12.3333 50.46 12.8667 50.1 13.56C49.7533 14.2533 49.58 15.0667 49.58 16C49.58 16.92 49.7533 17.7333 50.1 18.44C50.46 19.1333 50.9533 19.6733 51.58 20.06C52.22 20.4333 52.9467 20.62 53.76 20.62C54.52 20.62 55.1867 20.4533 55.76 20.12C56.3467 19.7733 56.8 19.2667 57.12 18.6H60.34C59.8733 20.0267 59.0533 21.14 57.88 21.94C56.72 22.7267 55.3533 23.12 53.78 23.12C52.4467 23.12 51.24 22.82 50.16 22.22C49.0933 21.6067 48.2467 20.76 47.62 19.68C47.0067 18.6 46.7 17.3733 46.7 16ZM75.2716 9.04L70.1516 23H66.7516L61.6316 9.04H64.6316L68.4716 20.14L72.2916 9.04H75.2716ZM84.5759 20.64H90.8559V23H81.3359V20.84L87.5759 11.4H81.3359V9.04H90.8559V11.2L84.5759 20.64ZM92.5194 17.42C92.5194 16.3 92.7394 15.3067 93.1794 14.44C93.6327 13.5733 94.2394 12.9067 94.9994 12.44C95.7727 11.9733 96.6327 11.74 97.5794 11.74C98.406 11.74 99.126 11.9067 99.7394 12.24C100.366 12.5733 100.866 12.9933 101.239 13.5V11.92H104.059V23H101.239V21.38C100.879 21.9 100.379 22.3333 99.7394 22.68C99.1127 23.0133 98.386 23.18 97.5594 23.18C96.626 23.18 95.7727 22.94 94.9994 22.46C94.2394 21.98 93.6327 21.3067 93.1794 20.44C92.7394 19.56 92.5194 18.5533 92.5194 17.42ZM101.239 17.46C101.239 16.78 101.106 16.2 100.839 15.72C100.573 15.2267 100.213 14.8533 99.7594 14.6C99.306 14.3333 98.8194 14.2 98.2994 14.2C97.7794 14.2 97.2994 14.3267 96.8594 14.58C96.4194 14.8333 96.0594 15.2067 95.7794 15.7C95.5127 16.18 95.3794 16.7533 95.3794 17.42C95.3794 18.0867 95.5127 18.6733 95.7794 19.18C96.0594 19.6733 96.4194 20.0533 96.8594 20.32C97.3127 20.5867 97.7927 20.72 98.2994 20.72C98.8194 20.72 99.306 20.5933 99.7594 20.34C100.213 20.0733 100.573 19.7 100.839 19.22C101.106 18.7267 101.239 18.14 101.239 17.46ZM120.554 11.76C121.914 11.76 123.007 12.18 123.834 13.02C124.674 13.8467 125.094 15.0067 125.094 16.5V23H122.294V16.88C122.294 16.0133 122.074 15.3533 121.634 14.9C121.194 14.4333 120.594 14.2 119.834 14.2C119.074 14.2 118.467 14.4333 118.014 14.9C117.574 15.3533 117.354 16.0133 117.354 16.88V23H114.554V16.88C114.554 16.0133 114.334 15.3533 113.894 14.9C113.454 14.4333 112.854 14.2 112.094 14.2C111.321 14.2 110.707 14.4333 110.254 14.9C109.814 15.3533 109.594 16.0133 109.594 16.88V23H106.794V11.92H109.594V13.26C109.954 12.7933 110.414 12.4267 110.974 12.16C111.547 11.8933 112.174 11.76 112.854 11.76C113.721 11.76 114.494 11.9467 115.174 12.32C115.854 12.68 116.381 13.2 116.754 13.88C117.114 13.24 117.634 12.7267 118.314 12.34C119.007 11.9533 119.754 11.76 120.554 11.76ZM127.031 17.42C127.031 16.3 127.251 15.3067 127.691 14.44C128.144 13.5733 128.751 12.9067 129.511 12.44C130.284 11.9733 131.144 11.74 132.091 11.74C132.918 11.74 133.638 11.9067 134.251 12.24C134.878 12.5733 135.378 12.9933 135.751 13.5V11.92H138.571V23H135.751V21.38C135.391 21.9 134.891 22.3333 134.251 22.68C133.624 23.0133 132.898 23.18 132.071 23.18C131.138 23.18 130.284 22.94 129.511 22.46C128.751 21.98 128.144 21.3067 127.691 20.44C127.251 19.56 127.031 18.5533 127.031 17.42ZM135.751 17.46C135.751 16.78 135.618 16.2 135.351 15.72C135.084 15.2267 134.724 14.8533 134.271 14.6C133.818 14.3333 133.331 14.2 132.811 14.2C132.291 14.2 131.811 14.3267 131.371 14.58C130.931 14.8333 130.571 15.2067 130.291 15.7C130.024 16.18 129.891 16.7533 129.891 17.42C129.891 18.0867 130.024 18.6733 130.291 19.18C130.571 19.6733 130.931 20.0533 131.371 20.32C131.824 20.5867 132.304 20.72 132.811 20.72C133.331 20.72 133.818 20.5933 134.271 20.34C134.724 20.0733 135.084 19.7 135.351 19.22C135.618 18.7267 135.751 18.14 135.751 17.46ZM147.446 11.76C148.766 11.76 149.832 12.18 150.646 13.02C151.459 13.8467 151.866 15.0067 151.866 16.5V23H149.066V16.88C149.066 16 148.846 15.3267 148.406 14.86C147.966 14.38 147.366 14.14 146.606 14.14C145.832 14.14 145.219 14.38 144.766 14.86C144.326 15.3267 144.106 16 144.106 16.88V23H141.306V11.92H144.106V13.3C144.479 12.82 144.952 12.4467 145.526 12.18C146.112 11.9 146.752 11.76 147.446 11.76ZM171.234 23H168.434L162.094 13.42V23H159.294V9.02H162.094L168.434 18.62V9.02H171.234V23ZM178.921 23.18C177.854 23.18 176.894 22.9467 176.041 22.48C175.188 22 174.514 21.3267 174.021 20.46C173.541 19.5933 173.301 18.5933 173.301 17.46C173.301 16.3267 173.548 15.3267 174.041 14.46C174.548 13.5933 175.234 12.9267 176.101 12.46C176.968 11.98 177.934 11.74 179.001 11.74C180.068 11.74 181.034 11.98 181.901 12.46C182.768 12.9267 183.448 13.5933 183.941 14.46C184.448 15.3267 184.701 16.3267 184.701 17.46C184.701 18.5933 184.441 19.5933 183.921 20.46C183.414 21.3267 182.721 22 181.841 22.48C180.974 22.9467 180.001 23.18 178.921 23.18ZM178.921 20.74C179.428 20.74 179.901 20.62 180.341 20.38C180.794 20.1267 181.154 19.7533 181.421 19.26C181.688 18.7667 181.821 18.1667 181.821 17.46C181.821 16.4067 181.541 15.6 180.981 15.04C180.434 14.4667 179.761 14.18 178.961 14.18C178.161 14.18 177.488 14.4667 176.941 15.04C176.408 15.6 176.141 16.4067 176.141 17.46C176.141 18.5133 176.401 19.3267 176.921 19.9C177.454 20.46 178.121 20.74 178.921 20.74ZM202.115 11.92L198.875 23H195.855L193.835 15.26L191.815 23H188.775L185.515 11.92H188.355L190.315 20.36L192.435 11.92H195.395L197.475 20.34L199.435 11.92H202.115Z" fill="#050916"/>
</svg>
