<svg width="46" height="46" viewBox="0 0 46 46" fill="none" xmlns="http://www.w3.org/2000/svg">
<circle cx="23" cy="23" r="22" stroke="#D1D5DB" stroke-width="2"/>
<path d="M36.7326 14.6684C35.7477 15.1049 34.6897 15.3997 33.5775 15.533C34.7251 14.8463 35.5837 13.7655 35.9931 12.4923C34.9148 13.1327 33.7348 13.5835 32.5041 13.8251C31.6766 12.9415 30.5805 12.3559 29.386 12.1591C28.1915 11.9623 26.9654 12.1653 25.8981 12.7367C24.8308 13.3082 23.9821 14.216 23.4836 15.3192C22.9851 16.4224 22.8648 17.6593 23.1414 18.8379C20.9566 18.7282 18.8193 18.1604 16.8682 17.1712C14.9171 16.182 13.1958 14.7937 11.8159 13.0962C11.3441 13.91 11.0729 14.8536 11.0729 15.8585C11.0723 16.7632 11.2951 17.654 11.7214 18.4519C12.1478 19.2498 12.7644 19.9302 13.5168 20.4326C12.6443 20.4048 11.791 20.1691 11.028 19.745V19.8157C11.028 21.0845 11.4669 22.3143 12.2703 23.2964C13.0737 24.2785 14.1921 24.9523 15.4358 25.2036C14.6264 25.4227 13.7778 25.4549 12.9541 25.298C13.305 26.3897 13.9886 27.3444 14.909 28.0284C15.8294 28.7124 16.9407 29.0914 18.0873 29.1124C16.1409 30.6404 13.7372 31.4692 11.2628 31.4655C10.8244 31.4656 10.3865 31.44 9.95117 31.3889C12.4629 33.0038 15.3867 33.8608 18.3727 33.8575C28.4809 33.8575 34.0068 25.4855 34.0068 18.2246C34.0068 17.9887 34.0009 17.7504 33.9903 17.5145C35.0652 16.7372 35.993 15.7747 36.7303 14.672L36.7326 14.6684Z" fill="#D1D5DB"/>
</svg>